<?xml version="1.0" standalone="no"?>
<!DOCTYPE svg PUBLIC "-//W3C//DTD SVG 20010904//EN"
 "http://www.w3.org/TR/2001/REC-SVG-20010904/DTD/svg10.dtd">
<svg version="1.0" xmlns="http://www.w3.org/2000/svg"
 width="512.000000pt" height="512.000000pt" viewBox="0 0 512.000000 512.000000"
 preserveAspectRatio="xMidYMid meet">
<metadata>
Created by potrace 1.14, written by Peter Selinger 2001-2017
</metadata>
<g transform="translate(0.000000,512.000000) scale(0.100000,-0.100000)"
fill="#000000" stroke="none">
<path d="M790 5113 c-215 -34 -371 -112 -521 -262 -129 -129 -186 -226 -242
-416 -21 -70 -21 -78 -25 -1825 -2 -1270 0 -1777 8 -1835 29 -200 107 -352
260 -505 153 -153 305 -231 505 -260 58 -8 566 -10 1835 -8 l1755 3 79 23
c324 95 553 324 648 648 l23 79 3 1755 c2 1269 0 1777 -8 1835 -29 200 -107
352 -260 505 -115 115 -202 172 -332 217 -155 54 -88 52 -1963 51 -957 0
-1751 -2 -1765 -5z m2681 -1233 c104 -21 129 -31 281 -112 81 -43 278 -260
278 -307 0 -6 9 -24 19 -39 45 -62 86 -239 84 -362 -2 -116 -40 -278 -80 -342
-13 -21 -23 -42 -23 -47 0 -12 -55 -94 -98 -148 -37 -46 -153 -143 -171 -143
-6 0 -11 -4 -11 -9 0 -5 -9 -13 -20 -16 -28 -9 -25 -24 8 -31 38 -8 169 -72
194 -94 11 -10 24 -22 30 -26 35 -32 99 -112 114 -143 52 -109 58 -134 62
-264 3 -110 0 -136 -18 -190 -49 -141 -111 -219 -253 -316 -99 -68 -49 -65
-1227 -68 -1052 -4 -1066 -3 -1148 17 -45 12 -109 37 -143 56 -34 19 -64 34
-69 34 -6 0 -95 78 -123 107 -30 32 -67 79 -67 86 0 5 -11 23 -25 41 -14 19
-39 70 -55 115 -29 78 -30 89 -30 246 0 160 9 221 40 277 6 10 10 23 10 29 0
6 14 30 30 54 17 24 30 46 30 48 0 15 136 157 151 157 5 0 9 4 9 9 0 14 170
98 212 105 31 6 39 12 43 34 3 15 10 47 15 72 5 25 12 61 16 80 3 19 14 51 23
70 10 19 26 53 36 75 37 79 176 231 249 271 74 41 186 88 247 104 47 12 305 8
380 -5 36 -7 37 -6 44 27 8 37 65 153 106 214 15 22 64 76 108 120 68 69 97
88 203 142 68 34 135 62 149 62 13 0 47 7 74 14 74 21 207 19 316 -4z"/>
<path d="M3162 3706 c-179 -52 -305 -139 -394 -273 -53 -78 -108 -180 -108
-199 0 -7 15 -22 33 -33 49 -32 168 -156 208 -219 l36 -57 139 0 c126 0 146
-3 217 -28 43 -15 102 -43 132 -61 80 -52 172 -151 209 -228 l32 -67 74 60
c79 64 102 93 142 179 62 132 63 136 63 290 l0 145 -39 90 c-88 201 -217 320
-421 387 -126 41 -216 45 -323 14z"/>
<path d="M2150 3134 c-125 -30 -247 -101 -319 -187 -14 -16 -29 -35 -35 -41
-17 -18 -35 -48 -46 -76 -6 -14 -15 -34 -20 -45 -17 -36 -50 -157 -50 -181 0
-34 -25 -90 -52 -117 -13 -13 -67 -40 -122 -61 -64 -25 -118 -54 -155 -84 -31
-25 -58 -49 -59 -54 -2 -4 -19 -27 -38 -50 -68 -81 -95 -158 -101 -291 -8
-154 39 -273 150 -388 62 -64 113 -98 187 -123 30 -10 61 -24 69 -30 10 -8
312 -12 1042 -14 l1028 -2 63 25 c98 39 161 88 206 158 40 63 72 152 72 203 0
49 -32 157 -58 196 -30 46 -87 108 -99 108 -5 0 -16 9 -25 19 -9 10 -48 29
-87 41 -39 13 -76 29 -82 36 -6 8 -17 14 -24 14 -25 0 -57 75 -72 165 -8 51
-26 116 -42 150 -37 78 -123 163 -209 206 l-67 33 -165 1 c-156 1 -200 6 -200
25 0 5 -8 11 -18 14 -10 3 -33 32 -52 63 -53 87 -175 204 -251 241 -113 53
-260 72 -369 46z m-28 -983 l33 -29 0 -122 0 -122 -33 -29 -32 -29 -205 0
-205 0 0 -100 0 -100 -45 0 -45 0 0 280 0 280 250 0 250 0 32 -29z m620 0 l33
-29 0 -122 0 -122 -33 -29 c-26 -23 -42 -29 -78 -29 l-45 0 75 -89 c42 -48 76
-93 76 -100 0 -7 -19 -11 -50 -11 l-49 0 -83 100 -83 99 -102 1 -103 0 0 -100
0 -100 -45 0 -45 0 0 280 0 280 250 0 250 0 32 -29z m640 0 l33 -29 0 -222 0
-222 -33 -29 -32 -29 -218 0 c-296 1 -282 -13 -282 280 0 211 6 245 47 269 11
6 106 11 235 11 l218 0 32 -29z"/>
<path d="M1680 2000 l0 -90 193 2 192 3 3 88 3 87 -196 0 -195 0 0 -90z"/>
<path d="M2300 2000 l0 -90 193 2 192 3 3 88 3 87 -196 0 -195 0 0 -90z"/>
<path d="M2940 1900 l0 -190 193 2 192 3 0 185 0 185 -192 3 -193 2 0 -190z"/>
</g>
</svg>
